<?xml version="1.0" encoding="utf-8"?>
<!-- Generator: Adobe Illustrator 24.1.2, SVG Export Plug-In . SVG Version: 6.00 Build 0)  -->
<svg version="1.1" id="Layer_1" xmlns="http://www.w3.org/2000/svg" xmlns:xlink="http://www.w3.org/1999/xlink" x="0px" y="0px"
	 viewBox="0 0 216 84.94" style="enable-background:new 0 0 216 84.94;" xml:space="preserve">
<style type="text/css">
	.st0{fill-rule:evenodd;clip-rule:evenodd;fill:#FFFFFF;}
	.st1{fill-rule:evenodd;clip-rule:evenodd;fill:#ED1C24;}
	.st2{fill:#FFFFFF;}
</style>
<g>
	<path class="st0" d="M0,59.63h99.64c3.04,0,5.54,1.85,5.54,4.11v0c0,2.26-2.49,4.11-5.54,4.11H0V59.63z"/>
	<path class="st1" d="M106.3,0C166.72,0,216,19.08,216,42.47c0,23.39-49.28,42.47-109.7,42.47c-30.97,0-59.01-5.01-78.99-13.05
		c18.23,5.27,41.56,8.44,66.95,8.44c58.04,0,105.38-16.58,105.38-36.9c0-20.32-47.34-36.9-105.38-36.9
		c-32.11,0-60.93,5.07-80.29,13.05C33.52,7.82,67.63,0,106.3,0"/>
	<path d="M96.06,64.35c0.32,0,0.64,0,0.98,0c-0.02,0.23-0.13,0.44-0.27,0.62c-0.14,0.18-0.36,0.35-0.64,0.48
		c-0.57,0.28-1.31,0.41-2.22,0.41c-1.04,0-1.85-0.18-2.45-0.55c-0.3-0.18-0.53-0.4-0.67-0.65c-0.14-0.25-0.22-0.54-0.22-0.86
		c0-0.3,0.08-0.57,0.22-0.8c0.14-0.24,0.4-0.44,0.7-0.62c0.62-0.35,1.47-0.53,2.51-0.53c0.85,0,1.53,0.11,2.07,0.33
		c0.54,0.22,0.85,0.53,0.93,0.91c-0.34,0-0.66,0-0.98,0c-0.1-0.25-0.32-0.45-0.67-0.58c-0.35-0.14-0.82-0.2-1.38-0.2
		c-0.75,0-1.33,0.14-1.74,0.41c-0.21,0.14-0.39,0.3-0.48,0.49c-0.1,0.19-0.14,0.41-0.14,0.66c0,0.23,0.05,0.44,0.14,0.63
		c0.1,0.19,0.28,0.35,0.5,0.49c0.44,0.28,1.01,0.42,1.71,0.42c0.61,0,1.1-0.1,1.49-0.29C95.83,64.92,96.04,64.67,96.06,64.35
		 M81.41,65.76c0-0.63,0-1.27,0-1.9c0-0.63,0-1.27,0-1.9c0.34,0,0.67,0,1.01,0c0,0.63,0,1.27,0,1.9c0,0.63,0,1.27,0,1.9
		C82.08,65.76,81.75,65.76,81.41,65.76z M70.3,65.76c0-0.56,0-1.12,0-1.67c0-0.56,0-1.12,0-1.67c-0.78,0-1.57,0-2.34,0
		c0-0.15,0-0.31,0-0.46c1.89,0,3.78,0,5.68,0c0,0.15,0,0.31,0,0.46c-0.78,0-1.57,0-2.34,0c0,0.56,0,1.12,0,1.67
		c0,0.56,0,1.11,0,1.67C70.98,65.76,70.64,65.76,70.3,65.76z M55.23,65.76c0-0.63,0-1.27,0-1.9c0-0.63,0-1.27,0-1.9
		c1.76,0,3.52,0,5.3,0c0,0.16,0,0.32,0,0.47c-1.44,0-2.87,0-4.29,0c0,0.19,0,0.38,0,0.57c0,0.19,0,0.38,0,0.57c1.31,0,2.62,0,3.95,0
		c0,0.15,0,0.3,0,0.44c-1.33,0-2.64,0-3.95,0c0,0.21,0,0.43,0,0.64c0,0.21,0,0.43,0,0.64c1.46,0,2.91,0,4.37,0c0,0.16,0,0.32,0,0.48
		C58.81,65.76,57.02,65.76,55.23,65.76z M42.87,65.76c0-0.63,0-1.27,0-1.9c0-0.63,0-1.27,0-1.9c0.34,0,0.67,0,1.02,0
		c0,0.55,0,1.11,0,1.66c0,0.55,0,1.11,0,1.66c1.23,0,2.46,0,3.7,0c0,0.16,0,0.32,0,0.48C46.01,65.76,44.44,65.76,42.87,65.76z
		 M28.58,65.76c0-0.63,0-1.27,0-1.9c0-0.63,0-1.27,0-1.9c0.34,0,0.67,0,1.01,0c0,0.26,0,0.52,0,0.78c0,0.26,0,0.52,0,0.78
		c1.28,0,2.56,0,3.84,0c0-0.26,0-0.52,0-0.78c0-0.26,0-0.52,0-0.78c0.34,0,0.67,0,1.02,0c0,0.63,0,1.27,0,1.9c0,0.63,0,1.27,0,1.9
		c-0.35,0-0.69,0-1.02,0c0-0.3,0-0.59,0-0.89c0-0.3,0-0.59,0-0.89c-1.28,0-2.56,0-3.84,0c0,0.3,0,0.6,0,0.89c0,0.3,0,0.59,0,0.89
		C29.25,65.76,28.91,65.76,28.58,65.76z M17.49,65.76c0-0.56,0-1.12,0-1.67c0-0.56,0-1.12,0-1.67c-0.78,0-1.57,0-2.34,0
		c0-0.15,0-0.31,0-0.46c1.89,0,3.79,0,5.7,0c0,0.15,0,0.31,0,0.46c-0.78,0-1.57,0-2.35,0c0,0.56,0,1.12,0,1.67c0,0.56,0,1.11,0,1.67
		C18.16,65.76,17.82,65.76,17.49,65.76z M1.99,65.76c0.45-0.63,0.91-1.27,1.36-1.9c0.45-0.63,0.93-1.27,1.39-1.9
		c0.37,0,0.74,0,1.1,0c0.45,0.63,0.93,1.27,1.38,1.9c0.45,0.63,0.93,1.27,1.39,1.9c-0.37,0-0.74,0-1.1,0
		c-0.14-0.19-0.27-0.38-0.4-0.57c-0.13-0.19-0.26-0.38-0.38-0.57c-0.98,0-1.95,0-2.91,0c-0.14,0.19-0.27,0.38-0.4,0.57
		c-0.13,0.19-0.26,0.38-0.38,0.57C2.68,65.76,2.33,65.76,1.99,65.76z M4.12,64.18c0.77,0,1.54,0,2.32,0
		c-0.19-0.28-0.38-0.56-0.58-0.84c-0.19-0.28-0.38-0.56-0.58-0.84c-0.21,0.28-0.4,0.56-0.59,0.84C4.51,63.62,4.31,63.9,4.12,64.18z"
		/>
	<path class="st2" d="M138.05,30.54c1.82-2.21,3.67-4.43,5.5-6.64c5.65,0,11.27,0,16.94,0c2.28,0,4.04,0.34,5.29,0.99
		c1.28,0.67,2.03,1.56,2.23,2.71c0.2,1.15-0.07,2.45-0.81,3.88c-0.88,1.7-2.33,3.32-4.31,4.86c-1.98,1.54-4.63,3.02-8,4.44
		c0.28,2.38,0.69,4.44,1.19,6.18c0.51,1.74,1.34,3.85,2.48,6.32c-3.32,1.47-6.66,2.95-9.95,4.42c-0.78-1.49-1.43-3.08-1.95-4.74
		c-0.52-1.67-0.95-3.36-1.24-5.08c-0.29-1.72-0.53-3.25-0.63-4.57c-0.1-1.33-0.13-2.61-0.13-3.85c1.42-0.66,2.91-1.34,4.43-2.06
		c1.52-0.71,2.98-1.52,4.38-2.39c1.41-0.88,2.34-1.75,2.79-2.62c0.41-0.82,0.33-1.33-0.3-1.53c-0.64-0.2-1.67-0.3-3.04-0.3
		C147.96,30.54,142.99,30.54,138.05,30.54 M128.05,53.28c1.87-3.64,3.75-7.29,5.62-10.93c1.87-3.64,3.72-7.29,5.6-10.94
		c3.04,0,6.13,0,9.19,0c-1.87,3.65-3.76,7.29-5.62,10.94c-1.86,3.64-3.72,7.29-5.6,10.93C134.18,53.28,131.09,53.28,128.05,53.28z
		 M136.76,23.9c-0.46,2.22-0.89,4.43-1.32,6.64c-4.71,0-9.4,0-14.11,0c-0.73,1.45-1.49,2.9-2.23,4.35c4.28,0,8.56,0,12.87,0
		c-1.87,2.21-3.72,4.41-5.57,6.61c-3.55,0-7.12,0-10.69,0c-0.86,1.72-1.75,3.45-2.63,5.17c4.99,0,10,0,15.02,0
		c-1.82,2.2-3.67,4.41-5.5,6.61c-7.32,0-14.67,0-22.01,0c2.53-4.89,5.04-9.79,7.55-14.69c2.51-4.89,5.01-9.79,7.52-14.69
		C122.7,23.9,129.72,23.9,136.76,23.9z M67.54,51.24c2.34-4.56,4.69-9.11,7.02-13.67c2.33-4.56,4.66-9.11,6.99-13.67
		c3.04,0,6.1,0,9.19,0c-0.81,1.55-1.61,3.1-2.41,4.65c-0.8,1.55-1.57,3.1-2.38,4.65c3.19,0,6.41,0,9.6,0
		c0.81-1.55,1.58-3.11,2.38-4.65c0.8-1.55,1.6-3.1,2.41-4.65c3.07,0,6.13,0,9.19,0c-2.51,4.9-5.01,9.8-7.52,14.69
		c-2.51,4.89-5.01,9.79-7.55,14.69c-3.06,0-6.13,0-9.19,0c1.16-2.24,2.29-4.49,3.44-6.73c1.15-2.25,2.3-4.49,3.47-6.74
		c-3.22,0-6.41,0-9.6,0c-0.81,1.56-1.61,3.11-2.41,4.67c-0.8,1.55-1.59,3.11-2.38,4.67c-0.98,1.92-1.49,3.29-1.52,4.13
		c-3.55,1.47-7.09,2.95-10.61,4.42C65.49,56.15,66.13,54,67.54,51.24z M44.26,46.67c2.76,0,5.52,0,8.28,0
		c1.22,0,2.08-0.05,2.68-0.16c0.58-0.1,1-0.38,1.22-0.8c0.14-0.27,0.22-0.52,0.18-0.76c-0.04-0.24-0.2-0.5-0.38-0.81
		c-0.18-0.31-0.24-0.46-0.25-0.48c-1.06-1.96-2.06-3.93-3.12-5.88c-0.47-0.87-0.86-1.59-1.11-2.23c-0.25-0.62-0.38-1.36-0.36-2.2
		c0.03-0.84,0.23-1.72,0.71-2.65c0.66-1.27,1.6-2.42,2.84-3.46c1.24-1.04,2.74-1.85,4.46-2.44c1.72-0.59,3.6-0.89,5.62-0.89
		c3.29,0,6.56,0,9.88,0c-0.43,2.22-0.86,4.43-1.27,6.64c-2.58,0-5.19,0-7.75,0c-1.17,0-2.05,0.06-2.61,0.17
		c-0.58,0.11-0.98,0.39-1.22,0.85c-0.15,0.28-0.2,0.54-0.15,0.76c0.05,0.22,0.25,0.63,0.61,1.25c1.14,1.98,2.21,3.98,3.34,5.96
		c0.69,1.2,1.14,2.32,1.37,3.37c0.23,1.06,0,2.29-0.73,3.71c-0.58,1.11-1.34,2.1-2.23,2.93c-0.89,0.84-1.9,1.55-3.04,2.1
		c-1.14,0.55-2.33,0.96-3.62,1.24c-1.27,0.27-2.58,0.41-3.98,0.41c-3.57,0-7.12,0-10.66,0C43.4,51.08,43.81,48.87,44.26,46.67z
		 M51.48,23.9c-2.53,4.9-5.04,9.8-7.55,14.69c-2.51,4.89-5.02,9.79-7.52,14.69c-3.07,0-6.13,0-9.17,0
		c2.51-4.89,5.01-9.79,7.52-14.69c2.51-4.89,5.01-9.79,7.52-14.69C45.33,23.9,48.39,23.9,51.48,23.9z M2.55,51.3
		c2.35-4.57,4.67-9.14,7.02-13.7c2.34-4.57,4.69-9.14,7.02-13.71c6.89,0,13.8,0,20.72,0c-0.4,2.22-0.84,4.43-1.29,6.64
		c-4.56,0-9.14,0-13.73,0c-0.81,1.57-1.6,3.14-2.41,4.71c4.13,0,8.26,0,12.41,0c-1.87,2.2-3.72,4.41-5.55,6.61
		c-3.42,0-6.86,0-10.26,0c-1.24,2.43-2.48,4.86-3.72,7.29c-0.93,1.82-1.44,3.2-1.52,4.13c-3.52,1.5-7.02,2.99-10.54,4.49
		c-0.1-0.9-0.01-1.85,0.3-2.86C1.32,53.9,1.83,52.7,2.55,51.3z"/>
</g>
</svg>
